<?xml version="1.0" encoding="UTF-8"?>
<svg id="Capa_2" data-name="Capa 2" xmlns="http://www.w3.org/2000/svg" viewBox="0 0 1132.7 353.27">
  <defs>
    <style>
      .cls-1 {
        letter-spacing: 0em;
      }

      .cls-1, .cls-2, .cls-3, .cls-4 {
        font-family: CenturyGothicPaneuropean, 'Century Gothic Paneuropean';
      }

      .cls-5 {
        font-size: 25.09px;
      }

      .cls-5, .cls-6, .cls-7 {
        fill: #fff;
      }

      .cls-8, .cls-9, .cls-10 {
        font-family: CenturyGothicPaneuropean-Bold, 'Century Gothic Paneuropean';
        font-weight: 700;
      }

      .cls-9 {
        letter-spacing: -.01em;
      }

      .cls-7 {
        font-family: AzonixRegular, Azonix;
        font-size: 25.36px;
      }

      .cls-11 {
        letter-spacing: 0em;
      }

      .cls-3 {
        letter-spacing: -.03em;
      }

      .cls-12 {
        letter-spacing: -.03em;
      }

      .cls-4 {
        letter-spacing: -.05em;
      }

      .cls-10 {
        letter-spacing: -.02em;
      }
    </style>
  </defs>
  <g id="Capa_1-2" data-name="Capa 1">
    <g>
      <path class="cls-6" d="M414.61,106.35c-3.03-2.04-7.42-4.15-12.94-4.36-.3-.01-.59-.02-.89-.02-9.27,0-17.15,5.48-20.85,11.39-1.38,2.21-1.27,3.01-1.2,3.29.34,1.59,2.31,2.73,5.32,3.54,3.67-1.94,7.83-3.31,12.42-3.74,1.02-.1,2.05-.14,3.07-.14h0c2.88,0,5.55.38,7.99.98-.56,1.35-1.05,2.72-1.47,4.1-1.99-.46-4.18-.75-6.52-.75-.87,0-1.75.04-2.66.12-11.21,1.05-19.88,8.55-23.35,15.88-1.26,2.65-1,3.52-.88,3.83.86,2.29,4.97,3.24,10.74,3.38,2.53-2.7,5.61-5.17,9.25-7.16,3.95-2.16,7.85-3.38,11.33-4.04-.13,1.53-.21,3.02-.25,4.46-2.82.62-5.89,1.66-9,3.37-9.86,5.41-15.22,14.8-15.89,21.92-.24,2.58.29,3.15.5,3.34.51.46,1.28.68,2.27.68,2.04,0,5.02-.92,8.55-2.41,1.59-3.96,3.98-7.92,7.31-11.49,2.13-2.29,4.38-4.13,6.62-5.64.09.95.19,1.83.3,2.61.09.68.19,1.45.31,2.29-1.37,1.06-2.74,2.28-4.06,3.69-7.67,8.23-9.81,18.83-8.21,25.8.58,2.52,1.26,2.9,1.52,3.01.29.13.61.19.96.19,3.41,0,9.86-5.72,16.87-13.17,1.01,1.09,2.16,1.99,3.47,2.63-11.96,12.79-16.93,14.88-20.34,14.88-.97,0-1.89-.19-2.74-.57-2.59-1.16-3.5-3.98-3.96-5.99-.83-3.62-.81-8.16.3-12.94-3.39,1.19-5.45,1.46-6.9,1.46-2.13,0-3.88-.61-5.2-1.82-2.09-1.92-2.08-4.88-1.88-6.93.4-4.23,2.22-9.25,5.51-13.98-5.07-.44-9.88-1.86-11.44-6.03-.73-1.94-.41-4.16,1.03-7.2,1.93-4.07,5.3-8.29,9.8-11.67-2.85-1.35-4.4-3.18-4.91-5.56-.4-1.89.14-3.9,1.77-6.5,3.88-6.19,12.63-13.43,24.52-13.43h0c.35,0,.7,0,1.05.02,6.94.26,12.39,3.01,16.14,5.75-.26.2-.53.37-.78.57-.92.75-1.78,1.54-2.59,2.36Z"/>
      <path class="cls-6" d="M434.1,164.49c1.05-1.25,2.13-2.51,3.27-3.73,1.35,3.4,2.14,6.9,2.31,10.47.47,9.5-1.88,16.06-6.99,19.51-1.22.82-3.67,2.21-6.35,2.21-1.23,0-2.37-.28-3.39-.84-3.21-1.74-3.63-5.08-3.97-7.77-.15-1.2-.31-2.44-.65-3.82-.55-2.23-1.51-4.39-2.81-6.46.57.26,1.18.47,1.81.63.77.19,1.55.28,2.33.28.43,0,.85-.04,1.26-.09.65,1.39,1.21,2.92,1.63,4.6,1.13,4.57.54,7.76,2.49,8.82.41.22.86.31,1.33.31,1.64,0,3.42-1.12,3.93-1.47,5.68-3.84,5.21-13.28,5.09-15.71-.08-1.7-.38-4.12-1.26-6.95Z"/>
      <path class="cls-6" d="M20.59,122.26c22.8-32.5,69.98-48.68,119.36-48.68,19.86,0,40.06,2.63,59.19,7.86-7.84,3.45-12.72,9.42-13.39,16.4-.4,4.1.66,8.2,2.9,11.76-.08.16-.15.31-.23.47-2.13,4.7-1.4,10.18,1.7,15.11-1.04.98-2.03,1.97-2.97,2.99-12.81-4.84-26.42-7.6-41.1-7.6-1.27,0-2.55.02-3.83.06-7.33.24-64.94,2.9-87.53,42.88-11.95,21.15-13.28,51.29.91,71.95,14.71,21.42,42.08,26.78,66.17,26.78,19.43,0,36.73-3.49,43.56-4.87,3.26-.66,6.39-1.4,9.44-2.2,1.3.68,2.63,1.31,4.01,1.86,2.47,10.02,9.41,18.56,19.1,24.35-18.72,14.52-42.87,26.89-71.65,30.01-.86.09-5.84.57-13.33.57-23.45,0-71.64-4.68-96.2-40.43-10.46-15.24-12.69-30.38-14.87-45.2-4.64-31.53-1.23-75.6,18.75-104.08Z"/>
      <path class="cls-6" d="M239.84,103.81c-.09-2.21-.32-4.38-.65-6.53,3.4,1.83,6.69,3.75,9.87,5.74-.37.02-.75.03-1.12.05-2.71.15-5.41.4-8.1.74Z"/>
      <path class="cls-6" d="M253.31,284.36c-1.06.45-2.14.88-3.24,1.28,3.15,2.79,6.46,5.39,9.92,7.76,7.2,4.93,15.08,8.93,23.41,11.91,3.75,1.34,7.59,2.45,11.5,3.37,2.61.62,5.24,1.16,7.9,1.59,1.37.22,2.74.4,4.12.57.86.1,1.72.21,2.58.29.05,0,.1,0,.15,0,.02,0,.04,0,.05,0,.1,0,.2-.01.3-.03.01,0,.02,0,.03,0,0,0,0,0,0,0,6.04-1.57,11.71-3.98,16.85-7.17.57-.35,1.1-.7,1.61-1.04.01,0,.02-.02.04-.02.51-.34.99-.68,1.45-1.02,0,0,0,0,0,0,.61.26,1.22.55,1.83.85.03.02.06.03.1.05.61.31,1.23.64,1.84.99.04.02.07.04.11.06.53.31,1.06.64,1.59.98.14.09.28.18.41.27.57.38,1.14.77,1.7,1.2,0,0,0,0,0,0,13.84,10.42,15.06,26.14,15.16,29.18.02.68.48,1.26,1.13,1.44.14.04.28.06.42.06,0,0,.02,0,.02,0,.11,0,.22-.01.33-.04,0,0,0,0,.01,0,.17-.04.32-.11.47-.21.03-.02.06-.04.1-.07.14-.11.27-.23.37-.38.01-.02.03-.05.04-.07.42-.64.82-1.28,1.22-1.93.15-.24.29-.48.43-.72.26-.44.52-.87.77-1.31.16-.28.31-.56.47-.84.22-.4.45-.8.66-1.2.16-.3.32-.6.48-.9.2-.38.4-.77.59-1.15.16-.31.31-.63.46-.94.18-.38.36-.75.54-1.13.15-.32.3-.64.44-.96.17-.37.33-.75.49-1.12.14-.33.28-.65.42-.98.15-.37.3-.74.45-1.11.13-.33.27-.66.39-1,.14-.37.27-.74.41-1.11.12-.33.25-.66.36-.99.14-.4.27-.79.4-1.19.22-.66.43-1.32.62-1.98.09-.3.19-.61.27-.91.12-.4.22-.81.33-1.21.08-.29.16-.58.23-.87.1-.41.2-.82.3-1.24.07-.28.13-.56.19-.84.09-.42.18-.84.26-1.26.05-.27.11-.54.16-.81.08-.43.16-.86.23-1.28.04-.25.08-.5.12-.76.07-.45.14-.89.2-1.33.03-.22.06-.44.09-.66.06-.47.12-.95.17-1.42.02-.16.03-.32.05-.49.3-3.08.37-6.11.21-9.07,0-.07,0-.14-.01-.21-.01-.22-.02-.45-.04-.67-.13-1.91-.37-3.78-.7-5.62,22.41,15.24,47.07,25.1,75.77,25.1,1,0,2.01-.01,3.02-.04,14.93-.36,52.02-3.87,76.87-31.18,27.56-30.29,30.33-79.16,13.15-115.79-16.97-36.16-49.91-52.7-69.89-58.74-7.35-2.22-17.1-5.18-26.65-5.18-7.01,0-13.91,1.6-19.65,6.25-15.1,12.24-11.82,37.26-11.26,41.57.68,5.2,2.6,19.82,9.69,21.56.44.11.87.16,1.3.16,8.27,0,14.13-19.47,29.22-21.72.96-.14,1.92-.21,2.88-.21,12.13,0,24.26,10.92,30,20.81,12.46,21.44,2.88,51.7-14.8,66.86-12.85,11.01-28.89,13.13-40.21,13.13-4.48,0-8.23-.33-10.73-.57-25.42-2.44-44-14.49-60.44-31.21-.73,8.74-4.67,16.96-11.42,23.53-1.8,1.76-3.77,3.36-5.88,4.78-.03.38-.07.76-.1,1.14-.11,1.06-.27,2.12-.48,3.17,2.02-.28,4.06-.46,6.1-.52.47-.01.95-.02,1.42-.02,23.03,0,39.72,14.53,47.71,23.31-5.27-2.19-10.6-3.25-15.93-3.18-13.29.2-24.43,7.57-31.11,12.96-.27.05-.54.14-.79.3-.42.26-.71.64-.87,1.07-1.14.97-2.11,1.83-2.88,2.52-2.46,2.19-4.29,4.13-5.9,5.84-2.83,3-5.28,5.59-10.19,8.64-4.8,2.98-10.09,5.24-15.73,6.74-17.37-1.72-33.89-7.65-47.79-17.17-2.92-2-5.73-4.17-8.43-6.48ZM332.72,299.66c1.87-1.61,3.36-3.2,4.98-4.91,1.65-1.74,3.35-3.55,5.71-5.65.54-.48,1.19-1.06,1.92-1.69,7.99,10.71,12.19,24.18,11.7,37.66,1.92-13.84-1.11-28.33-8.45-40.35,3.26-2.56,7.48-5.48,12.4-7.76,6.99,15,4.91,35.47-5.63,53.73-1.1-6.68-4.62-18.43-15.91-26.93-2.22-1.67-4.47-3.02-6.72-4.1Z"/>
      <path class="cls-6" d="M372.62,264.52c-17.52-4.09-36.58.07-50.64,11.05-.72.45-1.42.44-1.99.19,2.79-1.93,5.34-4.09,7.58-6.45.87-.92,1.68-1.86,2.45-2.82,13.46-5.53,28.77-6.37,42.6-1.96Z"/>
      <path class="cls-6" d="M196.99,275.31c8.47,6.11,19.59,9.47,31.31,9.47,1.13,0,2.29-.03,3.43-.09,10.37-.57,20.1-3.7,27.97-8.9,7.44,3.8,16.21,5.86,25.35,5.86,1.13,0,2.29-.03,3.43-.09,12.4-.69,23.9-5.01,32.39-12.19,8.46-7.15,12.98-16.3,12.86-25.88,2.61-1.55,5.04-3.4,7.21-5.51,7.03-6.85,10.63-15.7,10.12-24.9-.33-6-2.42-11.56-5.81-16.32,2.9-5.62,4.25-11.74,3.91-17.99-.59-10.58-6.04-20.33-15.35-27.45-3.88-2.97-8.28-5.35-13.02-7.12-5.37-21.29-32.51-36.69-66.47-36.69h0v2.16s0,2.16,0,2.16v-2.16s0-2.16,0-2.16c-2.03,0-4.09.06-6.13.17-4.41.24-8.75.75-12.97,1.5.32-6.23-.38-12.24-2.1-17.94-1.66-5.47-4.16-13.74-11.4-15.5-.89-.22-1.84-.33-2.82-.33-4.08,0-7.59,1.85-9.38,4.94-.69,1.18-1.05,2.43-1.19,3.67-2.53.08-4.97.62-7.24,1.61-6.41,2.8-10.22,7.3-10.74,12.67-.39,4.05,1.14,8.07,4.01,11.21-.73.74-1.31,1.57-1.72,2.48-1.75,3.85-.56,9.2,3.78,13.79-9.5,7.66-15.14,16.84-16.37,26.51-3.79,1.98-7.3,4.37-10.41,7.16-9.2,8.26-13.92,18.9-13.31,29.98.34,6.22,2.38,12.14,5.88,17.42-2.84,5.09-4.32,10.85-3.98,16.88.76,13.8,10.79,25.29,24.58,29.85,1.34,8.39,6.3,16.02,14.22,21.73ZM194.95,191.89c.73-.04,1.47-.06,2.19-.06,2.37,0,4.68.22,6.91.62.37,1.51.88,2.98,1.51,4.4-1.38,1.08-2.65,2.26-3.84,3.5,7.28,2.84,15.18,3.97,23.53,3.32.22-6.46,1.69-12.25,3.97-12.63-1.28-.1-2.57-.16-3.87-.16-5.79.04-11.44,1.19-16.81,3.42-.17.07-.35.11-.53.11-.54,0-1.05-.32-1.27-.85-.29-.7.04-1.51.74-1.8,5.7-2.37,11.7-3.59,17.85-3.63,3.94-.02,7.87.44,11.69,1.38-.39-.57-.29-1.35.24-1.81.58-.5,1.45-.44,1.94.14l3.01,3.47c.41.47.45,1.16.1,1.68-.35.52-1.01.73-1.6.52-3.46-1.24-7.03-2.02-10.66-2.38,3.15,1.09,7.27,10.53,8.35,19.12.84,6.7.05,14.63-1.79,18.13,1.84.41,3.62,1.06,5.31,1.97.67.36.93,1.19.57,1.87-.25.46-.72.73-1.22.73-.22,0-.44-.05-.65-.16-2-1.07-4.13-1.74-6.35-2.01-4.18-.5-7.64.57-9.81,1.56-.69.31-1.51,0-1.83-.68-.32-.69,0-1.51.68-1.83,1.93-.88,4.75-1.8,8.15-1.92-2.55-3.5-5.1-10.46-5.91-16.95-.13-1-.21-2.03-.27-3.07-3.08,2.61-7.67,5.57-13.79,7.01-2.42.57-4.91.86-7.42.86-.13,0-.25,0-.38,0-.9-.01-1.64-.7-1.71-1.6-.07-.9.54-1.7,1.43-1.85,2.25-.4,4.39-1.14,6.35-2.22.67-.37,1.31-.77,1.94-1.22-1.8-.2-3.58-.57-5.3-1.09-3.03-.93-5.6-2.28-7.76-3.74-4.01,5.56-6.18,12.15-5.8,19.12.04.76.13,1.52.23,2.26-6.92,6.71-10.65,14.89-10.67,23.45-11.21-4.34-19.25-13.88-19.88-25.37-.91-16.41,13.61-30.56,32.43-31.6ZM226.23,258.2c-.23-1.7-.98-3.28-2.07-4.6,2.95.44,6.01.6,9.14.43.78-.04,1.54-.13,2.31-.21,1.06,4.36.71,8.8-2.83,11.99-7.53,6.82-19.41,5.32-24.1-3.97-3.03-5.62,2.45-10.13,7.7-10.15,1.42.49,2.88.91,4.37,1.25.37.25.72.54,1.04.87,6.21,6.34.46,9.35-6.16,7.57,3.41,1.81,10.54,2.21,10.59-3.19ZM239.66,178.12c.13.75-.37,1.46-1.12,1.59-.08.01-.16.02-.24.02-.66,0-1.24-.47-1.36-1.14-.28-1.63-.64-5.81,2.16-9.47,1.05-1.37,2.39-2.47,3.98-3.27.68-.34,1.51-.07,1.85.61s.07,1.51-.61,1.85c-1.22.61-2.23,1.45-3.02,2.48-2.19,2.87-1.8,6.34-1.63,7.33ZM204.03,150.2c1.06-.06,2.12-.09,3.17-.09,7.94,0,15.41,1.67,21.88,4.6-15.97,6.69-26.5,19.25-25.74,33.06,0,.06.02.13.02.19-2.03-.3-4.11-.46-6.23-.46-.81,0-1.62.02-2.43.07-.41.02-.81.06-1.21.09,1.42-2.29,2.35-4.94,2.66-7.35,1.16-7.16-3.2-14.06-9.39-17.24,4.74,4.31,8.4,10.5,7.57,16.97-.46,2.68-1.49,5.61-3.21,7.86-3.46.48-6.76,1.36-9.84,2.59-2.27-1.24-4.05-3.5-4.43-5.99-1.04-5.97,5.06-13.81,9.61-6.34,1.8,2.81-.94,6.12-3.91,6.81,3.69-.04,7.18-3.82,5.58-7.59-7.93-12.53-19.59,6.59-8.89,13.99-5.84,2.7-10.81,6.66-14.45,11.46-2.43-4.15-3.9-8.76-4.17-13.67-1.11-20.14,18.32-37.59,43.41-38.98ZM230.82,110.02c-11.67,2.57-22.3,7.04-30.93,13.1-3.28-3.29-4.42-6.98-3.34-9.35,1.17-2.58,4.87-3.37,6.3-3.6-5.36-2.07-8.66-6.88-8.22-11.47.56-5.8,6.87-8.56,8.17-9.12,2.2-.96,4.33-1.26,6.13-1.26,2.17,0,3.88.43,4.67.66-.13-.23-2.01-3.63-.36-6.48,1.18-2.03,3.56-2.78,5.64-2.78.65,0,1.26.07,1.8.2,4.84,1.17,6.83,7.77,8.28,12.55,1.13,3.72,2.41,9.71,1.86,17.56ZM302.34,179.17c-3.22-17.89-25.3-30.83-51.26-29.4-5.79.32-11.31,1.34-16.41,2.92-8.02-4.48-17.54-6.9-27.47-6.9-1.13,0-2.28.03-3.41.09-6.68.37-13.1,1.8-18.98,4.18,4.63-19.92,30.96-36.27,63.61-38.08,1.98-.11,3.95-.16,5.89-.16,34.15,0,61.87,16.6,63.08,38.62.59,10.66-5.15,20.74-15.06,28.73ZM260.72,170.8c-.85-.99-1.92-1.76-3.17-2.3-.7-.3-1.02-1.11-.72-1.81.3-.7,1.11-1.02,1.81-.72,1.64.7,3.04,1.72,4.17,3.03,3,3.48,2.9,7.68,2.72,9.32-.08.7-.67,1.23-1.37,1.23-.05,0-.1,0-.15,0-.76-.08-1.3-.77-1.22-1.52.14-1.28.23-4.56-2.07-7.22ZM316.6,169.66c0,1.31.17,2.64.53,3.96.7,2.86,2.34,6,4.6,8.32-2.74-.56-5.59-.86-8.52-.86h0v2.16s0,2.16,0,2.16v-2.16s0-2.16,0-2.16c-.8,0-1.62.02-2.43.07-1.59.09-3.14.27-4.67.52,4.4-3.7,7.91-7.74,10.49-12ZM342.2,193.04c-3.08-3.24-6.83-5.96-11.07-7.97.51-.15,1.03-.35,1.55-.61,14.34-7.51-.92-28.91-7.89-14.62-1.18,3.92,2.71,7.29,6.38,6.93-3.02-.36-6.11-3.35-4.64-6.34,3.7-7.92,10.64-.8,10.25,5.25-.19,4.4-4.72,8.62-9.21,7.75-4.58-1.14-7.41-5.95-8.65-10.26-1.54-6.34,1.42-12.9,5.65-17.71-1.29.85-2.46,1.89-3.5,3.05.57-2.73.81-5.51.65-8.31-.02-.34-.06-.67-.09-1,13.25,5.72,22.48,16.71,23.21,29.8.27,4.91-.69,9.66-2.64,14.05ZM333.28,238.62c-1.47-8.17-6.39-15.59-14.13-21.17-1.06-.77-2.17-1.49-3.31-2.17-.61-6.54-3.41-12.47-7.77-17.29-2.63,2.62-6.5,5.58-11.8,7.3-1.72.56-3.49.95-5.28,1.18.63.43,1.28.83,1.95,1.19,1.98,1.05,4.12,1.76,6.38,2.12.89.14,1.52.93,1.46,1.83-.06.9-.79,1.6-1.69,1.62-.29,0-.59.01-.88.01-2.33,0-4.66-.25-6.93-.75-5.89-1.29-10.39-4.01-13.5-6.49,1.53,9.22,0,20.31-3.19,20.82-3.14.5-7.86-9.35-9.34-17.98-1.16-6.71-.67-14.48.91-18.44-2.26.26-4.51.68-6.73,1.28-.61.16-1.24-.1-1.56-.64-.31-.54-.22-1.23.23-1.67l3.27-3.22c.54-.53,1.42-.53,1.95.01.5.5.53,1.29.1,1.83,3.88-.65,7.82-.8,11.76-.47,6.13.52,12.02,2.21,17.51,5.02.68.35.95,1.18.6,1.85-.24.48-.73.75-1.23.75-.21,0-.43-.05-.63-.15-5.17-2.64-10.72-4.23-16.49-4.73-1.07-.09-2.14-.13-3.21-.15,1.89,2.56,3.79,6.89,5.04,11.4.16-.04.33-.06.5-.05,8.82.57,17.15-.83,24.73-4.14,1.23-.54,2.43-1.14,3.62-1.78-1.33-1.2-2.77-2.32-4.3-3.34.6-1.74,1.01-3.51,1.24-5.32,2.69-.76,5.53-1.25,8.47-1.41.74-.04,1.47-.06,2.19-.06,17.85,0,32.65,12.12,33.52,27.89.56,10.17-4.81,19.47-13.45,25.32ZM263.64,272.88c.16-.13.32-.25.48-.38,6.99-5.91,11.29-13.19,12.51-20.95.83,0,1.66,0,2.5-.05,2.93-.16,5.76-.61,8.48-1.29-1.25,5.05-.41,10.29,4.43,13.76,6.93,5.1,17.36,4.65,23.05-2.07,14.11-16.24-14.19-24.99-16.29-7.7.65,5.37,7.69,4.18,10.88,2.01-6.4,2.5-12.43.12-6.96-6.85,4.64-5.94,17.23-1.64,13.92,6.53-3.64,9.75-15.28,12.55-23.52,6.6-4.18-3.01-4.83-7.87-3.97-12.68,14.76-4.28,25.51-15.83,26.71-29.36,7.91,5.43,13.04,13.17,13.53,22,.99,17.9-17.43,33.48-41.14,34.79-1.07.06-2.13.09-3.19.09-7.82,0-15.15-1.61-21.41-4.43ZM228.3,280.45c-22.3,0-40.6-13.03-41.54-30.13-.4-7.28,2.4-14.17,7.46-19.87,2.84,8.7,9.74,15.83,18.79,19.91-5.2,1.58-8.95,6.64-6,12.27,5.2,10.39,18.57,12.2,27,4.54,4.23-3.81,4.66-8.83,3.11-13.53,7.07-.99,13.49-3.58,18.73-7.32,4.83,2.69,10.42,4.45,16.41,5.03-2.75,15.37-19.66,27.85-40.78,29.02-1.07.06-2.13.09-3.19.09Z"/>
      <path class="cls-6" d="M251.11,145.01c-.14-1.22-.79-5.36-4.44-8.68-2.59-2.36-5.44-3.16-6.8-3.45,1.3-.44,4.02-1.55,6.37-4.18,2.81-3.14,3.38-6.55,3.53-7.85.16,1.2,1.03,6.53,5.83,9.88,2,1.4,4.02,1.98,5.41,2.25-1.09.13-3.97.63-6.44,2.91-3.85,3.54-3.52,8.44-3.46,9.12Z"/>
      <path class="cls-6" d="M321.02,216.89c-4.92-5.34-5.07-13.5-1.65-19.56-1.58,6.2-1.23,13.39,3.03,18.34,3.07,3.28,7.78,6.27,12.38,5.2,4.4-1.27,6.51-7.09,4.68-11.1-2.39-5.55-11.85-8.72-11.52,0,.04,3.34,4.16,4.59,7.01,3.53-3.1,2-8.1.76-8.83-3.26-.28-15.91,23.03-3.76,13.68,9.43-4.89,6.65-14.38,2.52-18.77-2.58Z"/>
      <path class="cls-6" d="M182.72,220.14c-.29,4.08-5.11,5.86-8.42,4.22,2.95.74,6.9-.96,6.58-4.28-.66-8.72-9.66-4.51-11.45,1.27-1.38,4.18,1.36,9.74,5.87,10.51,4.69.55,9.04-2.94,11.73-6.53,3.68-5.38,3.24-12.57.98-18.56,4.07,5.65,4.81,13.77.52,19.62-3.81,5.56-12.77,10.7-18.37,4.63-10.75-12.09,11.09-26.71,12.55-10.88Z"/>
      <path class="cls-6" d="M372.08,72.06c.72-4.07-.85-8.87-4.52-13.87-8.19-11.16-25.1-21.44-42.31-26.36.32,5.65.02,11.43-.93,17.32-.11.66-.74,1.11-1.4,1.01-.53-.09-.91-.51-.99-1.01-.02-.12-.04-.25-.02-.38,1.77-10.94,1.28-21.5-1.46-31.42-2.28-8.24-5.44-13.63-9.13-15.57-4.05-2.13-10.09-2.66-12.77.22-1.83,1.96-1.94,5.29-.39,11.5,2.94,11.76,9.02,23.87,18.09,35.98.12.16.18.35.21.54.07.43-.08.88-.46,1.16-.22.16-.47.24-.73.24-.37,0-.74-.17-.98-.49-5.56-7.44-10.02-14.89-13.36-22.27-22.53.34-46.21,8.67-48.73,22.03,7.29,5.89,15.18,11.11,23.47,15.5,22.71,12.02,43.83,15.64,57.55,16.56,11.02.74,22.21.15,33.26-1.74,3.14-2.81,5.05-5.84,5.6-8.95ZM277.27,63.17c2.65-3.45,7.5-5.26,11.76-4.35-4.31.68-8.05,2.07-11.76,4.35ZM287.23,44.45c-3.92.61-7.22,1.9-10.56,4.04,2.22-3.27,6.71-5.03,10.56-4.04ZM298.95,34.96c-5.07-.78-9.88-.98-14.99-.61,4.75-1.86,10.41-1.63,14.99.61ZM338.04,69.82c4.3.71,8.15,4.16,9.37,8.34-2.63-3.48-5.6-6.14-9.37-8.34ZM351.69,48.89c-4.63-2.21-9.18-3.78-14.18-4.9,5.09-.42,10.43,1.44,14.18,4.9ZM353.31,64.72c-2.33-3.21-4.93-5.61-8.36-7.61,3.94.48,7.48,3.75,8.36,7.61Z"/>
      <path class="cls-6" d="M333.05,85.26c3.14.21,6.29.31,9.45.31,6.55,0,13.14-.46,19.68-1.36-.22.14-.44.28-.66.42-14,8.54-41.92,13.55-66.1,6.03-21.02-6.53-42.67-23.09-43.41-36.91,7.02,5.54,14.57,10.47,22.48,14.66,23.1,12.23,44.6,15.91,58.56,16.85Z"/>
    </g>
    <g>
      <text class="cls-7" transform="translate(754.19 302.22) scale(1.41 1)"><tspan class="cls-12" x="0" y="0">S</tspan><tspan class="cls-11" x="18.49" y="0">TUDIOS</tspan></text>
      <g>
        <g>
          <path class="cls-6" d="M638.61,153.66c-4.08-.45-6.12-.69-10.19-1.15-.05-1.86-.11-3.71-.17-5.57-.18-5.56-.34-11.12-.51-16.68-.29-9.59-.59-19.18-.88-28.78,3.93,1.2,5.92,1.79,9.9,2.92-.4-10.56-.8-21.13-1.2-31.69-15.32-6.42-30.21-13.42-44.92-21.16-.02,12.54-.03,25.08-.04,37.62,4.22,1.58,6.34,2.36,10.61,3.87.11,12.4.23,24.81.33,37.21.05,5.56.11,11.11.16,16.68,0,.75,0,1.5.02,2.24-4.49-.6-6.72-.91-11.18-1.53-.02,12.56-.04,25.11-.05,37.66,16.44.03,32.87.05,49.31.07-.4-10.57-.79-21.15-1.19-31.72Z"/>
          <path class="cls-6" d="M687.52,185.42c9.01,0,13.52.02,22.53.02-.8-12.83-1.61-25.67-2.41-38.51-.35-5.55-.7-11.11-1.05-16.68-.74-11.79-1.48-23.59-2.22-35.38-8.98-2.17-17.94-4.63-26.79-7.34.42,7.15.62,10.74,1.05,17.89,1.14,8.39,1.72,12.56,2.86,20.86-7.29-14.59-14.21-29.31-20.86-44.21-8.76-2.99-13.09-4.58-21.61-7.97.75,18.73,1.5,37.44,2.24,56.16.22,5.56.44,11.12.66,16.68.51,12.82,1.02,25.63,1.53,38.45,8.99,0,17.99.02,26.98.03-.38-7.05-.57-10.57-.95-17.62-1.21-8.4-1.86-12.94-2.97-20.86-.09-.63-.18-1.29-.28-1.97.33.66.66,1.31.99,1.97,6.5,12.97,13.18,25.85,20.31,38.49Z"/>
          <path class="cls-6" d="M767.24,158.86c-.24-4.79-.41-8.33-.59-11.92-.17-3.39-.33-6.8-.55-11.31-9.4-.84-18.78-1.72-28.15-2.83-.06-1-.11-1.78-.15-2.53-.05-.9-.11-1.77-.18-2.97,8.91,1.1,17.79,2.09,26.73,2.97.87.09,1.75.18,2.62.26,0-.09,0-.18,0-.26-.47-9.5-.7-14.34-1.17-23.94-19.29-2.7-38.31-6.15-57.31-10.45.72,11.47,1.44,22.92,2.16,34.39.35,5.56.7,11.11,1.05,16.68.81,12.84,1.61,25.68,2.42,38.52,8.99,0,17.99,0,26.98.02-.56-9.38-1.13-18.76-1.68-28.13,9.28.59,18.56,1.1,27.83,1.52Z"/>
          <path class="cls-6" d="M822.34,164.49c-4.22-.04-6.34-.06-10.55-.13-.12-5.81-.25-11.62-.36-17.42-.11-5.14-.22-10.28-.33-15.42,4.33.17,6.49.23,10.82.33,0-.55-.02-1.08-.02-1.59-.1-7.37-.15-11.56-.25-19.42-17.39-.57-34.79-1.87-52.05-4.03.41,8.85.62,13.28,1.04,22.14,4.78.42,7.18.62,11.98.98,0,.11,0,.22.02.33.22,5.56.44,11.11.67,16.68.22,5.6.45,11.19.67,16.79-4.69-.14-7.04-.21-11.72-.39.41,8.86.62,13.29,1.04,22.15,16.43,0,32.87.02,49.31.03-.11-8.41-.16-12.61-.26-21.02Z"/>
          <path class="cls-6" d="M867.8,110.57c-.13,5.48-.19,8.22-.32,13.7.21,2.32.38,4.21.53,5.98.27,3.04.51,5.75.85,9.71-2.13-3.25-4.28-6.49-6.44-9.71-4.28-6.42-8.61-12.8-12.97-19.15-9.57.13-14.35.1-23.91-.16.06,6.44.12,12.87.18,19.31.05,5.56.11,11.12.17,16.68.11,12.87.25,25.72.37,38.58,8.99,0,17.99,0,26.98,0,.06-5.16.09-7.73.16-12.88-.76-6.59-1.14-9.88-1.92-16.47,6.42,9.7,12.72,19.47,18.85,29.36,9.01,0,13.52,0,22.54,0,.54-12.87,1.07-25.73,1.62-38.6.23-5.56.47-11.11.7-16.68.3-7.22.6-14.42.91-21.64-9.44.8-18.84,1.45-28.3,1.95Z"/>
          <path class="cls-6" d="M939.51,130.26c.1-1.43.18-2.87.27-4.3,4.25-.53,6.38-.82,10.61-1.41.62-9.56.93-14.34,1.56-23.9-16.98,3.29-34.15,5.84-51.37,7.54-.4,8.7-.59,13.06-.98,21.77,4.8-.35,7.19-.55,11.98-.98-.02.42-.04.85-.06,1.28-.29,5.56-.57,11.12-.86,16.68-.28,5.49-.56,10.97-.84,16.46-4.68.17-7.03.24-11.72.38-.39,8.7-.58,13.06-.98,21.76,16.44,0,32.88,0,49.32.02.62-9.56.93-14.34,1.55-23.89-4.18.24-6.27.34-10.47.55.32-5.1.63-10.18.96-15.28.34-5.55.7-11.11,1.04-16.68Z"/>
          <path class="cls-6" d="M956.11,99.82c-.59,8.94-1.18,17.89-1.77,26.83,6-.84,8.98-1.28,14.94-2.24-.13,1.94-.26,3.9-.39,5.84-.38,5.56-.75,11.11-1.12,16.68-.86,12.87-1.72,25.74-2.58,38.61,8.99,0,17.99,0,26.98,0,.81-12.87,1.63-25.75,2.45-38.62.35-5.56.7-11.11,1.06-16.68.23-3.56.45-7.12.68-10.67,5.87-1.15,8.79-1.76,14.6-3.04.62-10.48,1.23-20.96,1.85-31.43-18.73,5.77-37.53,10.64-56.7,14.7Z"/>
          <path class="cls-6" d="M1065.05,65c-2.75,8.88-4.14,13.22-6.98,21.69-1.94,8.16-2.93,12.17-4.93,20.08-1.47-6.93-2.2-10.34-3.65-17.05-2.34-6.41-3.5-9.53-5.82-15.63-9.48,3.63-18.93,7.03-28.54,10.27-.05.92-.08,1.39-.13,2.31,6.09,14.41,11.8,28.96,17.31,43.59,2.09,5.55,4.16,11.11,6.2,16.68,0,.02.02.04.03.06-.56,12.87-1.14,25.72-1.7,38.58,8.99,0,17.99,0,26.97.02.33-12.89.65-25.77.98-38.66.03-1.21.06-2.44.09-3.65,1.54-4.33,3.04-8.67,4.52-13.02,8.41-24.84,15.7-50.01,22.26-75.43v-3.06c-8.8,4.63-17.61,9-26.61,13.23Z"/>
        </g>
        <g>
          <path class="cls-6" d="M590.5,195.18c.38-.64,1.07-1.2,1.63-1.27,9.31-1.22,21.35-.19,32.03-.27.95,0,1.43,0,2.39,0,.75.14,1.76.86,2.51,1,1.51.42,3.14.84,4.52,1.54,1.65,1.01,2.48,1.51,4.13,2.5,1.25.83,2.5,1.71,3.5,2.74,1.06,1.09,2,2.46,2.62,3.97,1.49,3.01,2.67,6.48,2.46,9.99-.2,3.26-.79,6.8-1.93,10.07-.89,2.56-2.28,5.32-4.04,7.44-.76,1.05-1.82,1.98-2.77,2.66-1.24.89-2.64,1.69-3.89,2.39-.38.33-.79.5-1.13.69-.24.14-.5.48-.75.8,1.12.73,2.63.7,3.88.98,1.25.28,2.38.71,3.5,1.28,2.25,1.14,4.12,3,5.61,5.16.87,1.27,1.48,2.61,2.11,4,.58,1.28,1.24,2.72,1.73,4.15.25.65.32,1.53.49,2.26.17.74.18,1.68.24,2.43.11,1.51-.08,3.47-.28,5.24-.18,1.61-.5,3.26-1.02,4.83-.48,1.45-1.06,2.94-1.77,4.31-.77,1.48-1.64,2.8-2.64,4.11-1.13,1.47-2.2,2.8-3.39,4.04-1.26,1.31-2.51,2.64-3.76,3.91-1.25,1.27-2.38,2.37-3.76,3.41-2.63,1.89-5.51,3.48-8.37,4.47-3.22,1.11-6.36,1.46-9.6,2.31-1.62.42-3.32.96-4.73,1.4-1.57.49-3.24,1.02-4.85,1.47-3.33.92-5,1.38-8.33,2.33-1.74.5-3.27.82-4.84.92-.6.04-1.2-.01-1.49-.52-.27-.48-.25-1.35-.12-2.02.87-32.91.02-65.93-.12-98.85.1-2.35.15-3.52.25-5.86ZM610.14,234.18c2.13.53,4.25.3,6.38-.22,1.25-.31,1.88-.46,3.13-.76.88-.24,1.63-.6,2.38-.97,1.51-.88,2.76-2.31,3.64-3.97.63-1.07,1.12-2.15,1.51-3.31.35-1.03.67-2.09.76-3.23.37-4.36-3.67-7.37-7-8.14-2.2-.5-4.51-.8-6.77-.68-1.13.06-2.26.12-3.39.33-.38.02-.84-.04-1,.5-.18.58-.25,1.52-.25,2.12,0,1.51.12,3.01.24,4.51,0,1.81,0,2.71,0,4.52.14,3.72.21,5.59.36,9.3ZM610.68,278.76c.62.01,1.25-.12,1.75-.23.8-.29,1.2-.44,2-.73,1.6-.46,2.4-.69,3.99-1.15,2.25-.77,4.38-1.71,6.38-3.5,1.7-1.51,3.38-3.7,4.14-5.98.87-2.59.76-5.3.15-7.63-.5-1.92-1.23-3.75-2.48-5.08-1.41-1.5-3.24-1.98-5.24-2.27-2.5-.36-5-.29-7.63.4-.62.09-1.25.19-1.87.43-.55.2-.83.31-1.38.51-.12.17-.38.51-.38.81,0,3.31,0,4.97-.02,8.28,0,1.66-.2,3.27,0,4.82.17,1.4.31,3.17.36,4.59.06,1.44-.19,3.26,0,4.66.09.7.25,1.3.25,2.05Z"/>
          <path class="cls-6" d="M715.74,274.87c-.25.27-.38.65-.51.91-.51.91-1.44,1.61-2.4,1.9-.62.18-1.26.3-2.01.42-.76.11-1.57.17-2.26.22-1.4.1-3.05.43-4.53.57-2.84.27-5.95.61-8.92.82-1.11.08-2.27.13-3.13-.48-1-.7-1.49-1.88-1.99-2.8-1.34-3.09-2-4.65-3.34-7.78-2.35-5.07-4.95-10.18-7.18-15.41-.35-.83-.52-1.24-.87-2.07-.3-.73-.45-1.1-.74-1.84-.12-.11-.12-.37-.25-.36-.15-.09-.23-.13-.38-.21-.38.04-.75.09-1.13,0-.8.09-1.2.14-2.01.24-.25.16-.38.17-.63.2,0,0-.13-.11-.25.03-.05,0-.08,0-.13.02,0,.05,0,.08,0,.13-.13.27-.13.66-.13.92-.26,9.91-.21,19.95-.17,29.76,0,.9.24,2.16-.39,3.06-.38.33-.76.54-1.01.58-.8.26-1.2.39-2.01.65-1.51.43-3.01.86-4.64,1.19-1.38.28-2.88.32-4.26.47-2.66.55-3.98.83-6.64,1.4-.12-.11-.37-.05-.62-.14-.1-.09-.15-.13-.25-.22-.12-.24-.12-.38-.12-.65.04-30.48-.25-61.18-.29-91.77.4-.17.6-.25,1.01-.41.25,0,.63-.14.88-.14.95,0,1.43,0,2.39,0,1.38-.14,2.96-.08,4.4-.15,1.45-.07,3.02-.14,4.65-.15,1.51,0,3.01.12,4.52.12,3.62.09,5.43.14,9.04.23,1.51,0,3.01.12,4.52.11,1.76.09,2.64.14,4.4.24,1.51.12,3.02.38,4.39.61,1.49.25,3.05.55,4.39.97,2.15.66,4.56,1.68,6.51,3.02,1.87,1.28,3.64,2.88,5,4.67,1.62,2.14,2.86,4.41,3.85,6.79.49,1.19.86,2.39.98,3.82.11,1.31.23,2.76.22,4.2-.02,2.53-.46,5.09-1.3,7.65-.79,2.41-2.22,4.84-3.81,7.02-1.66,2.25-3.3,4.62-5.32,6.51-1.01.94-2.15,1.78-3.16,2.61-.71.51-1.06.76-1.77,1.28-.3.23-.45.34-.76.57-.2.12-.3.18-.5.3-.13.14,0,0,0,.25,0,.12.12.24.12.24,1.79,2.94,2.68,4.4,4.48,7.3,1.64,2.91,2.46,4.36,4.1,7.23,1.24,2.29,2.99,4.25,4.36,6.5,1.37,2.24,2.74,4.47,4.36,6.41.45.66.67.99,1.12,1.65,0,.12.12.22.25.44q0,.12-.13.38ZM693.33,221.78c-.02-1.59-.8-4.2-1.98-5.15-1.37-1.1-3.35-1.52-5.14-1.65-2.16-.16-4.52-.05-6.78.06-2.46.11-3.69.17-6.15.29q-.13,0-.25.27c-.13,0-.13.14-.25.27,0,.73,0,1.09-.01,1.82,0,.65,0,1.3-.14,1.83,0,1.56-.01,2.34-.02,3.9-.01,2.47.1,4.93.08,7.41,0,.36,0,.55,0,.91,0,.26.12.51.25.63,3.11-.26,4.67-.39,7.78-.64,3.77-.3,12.74-.8,12.62-9.95Z"/>
          <path class="cls-6" d="M745.69,276.06c-2.02.22-4.04.57-6.05.57-1.88,0-3.9-.12-5.79-.58-3.65-.72-7.3-1.96-10.17-4.13-2.81-2.13-3.87-5.33-4.98-8.77-.62-1.84-1-3.72-1.22-5.59-.13-1.05-.11-2.02.02-3.11.17-13.94.34-27.88.51-41.82.14-2.03.64-4.1,1.17-6,.5-1.79,1.65-3.37,2.79-4.69,1.15-1.32,2.52-2.74,4.04-3.83,1.5-1.08,3.28-2.03,5.17-2.74,1.89-.71,3.95-1.26,5.91-1.65,2.1-.41,4.4-.93,6.54-1.16,2.14-.23,4.33-.29,6.41-.23,1.96.06,4.06.52,5.9,1.02,1.82.49,3.77,1.13,5.64,1.9,1.63.67,3.14,1.5,4.39,2.45,1.32,1.01,2.63,2.13,3.63,3.44,1.1,1.44,1.87,3.1,2.62,4.76.37.77.73,1.68.99,2.54.23.76.37,1.77.49,2.66.15,13.61.3,27.22.46,40.83-.26,1.9-.47,4-.91,5.82-.21.88-.5,1.84-.9,2.72-.35.79-.89,1.61-1.4,2.43-.89,1.51-1.9,3.08-3.17,4.35-1.33,1.33-2.91,2.57-4.56,3.5-.89.52-1.77.94-2.78,1.36-1.16.55-1.74.83-2.91,1.39-1.9.85-3.86,1.45-5.81,1.81-.99.18-1.89.31-2.9.41-1.26.13-1.89.2-3.15.34ZM736.79,247.65c.02,1.83.13,3.72.72,5.39.51,1.44,1.3,3.12,2.49,4.06,1.25.98,3.14,1.33,4.9,1.29,1.76-.04,3.53-.65,5.05-1.79,2.78-2.16,3.53-5.64,3.82-8.69.37-3.85.61-7.81.56-11.71-.02-1.9.14-3.87-.1-5.77-.12-1.01-.12-2.04-.11-2.94,0-1.02.08-1.99.14-2.84.13-1.82-.23-3.73-.6-5.65-.12-.79-.3-1.6-.62-2.36-.27-.63-.62-1.34-1.12-1.9-1-1.22-2.32-2.29-3.88-2.63-1.59-.35-3.62-.19-5.16.36-.86.31-1.76.62-2.52,1.11-.76.48-1.25,1.1-1.64,1.78-.41.71-.78,1.66-1.02,2.47-.27.91-.39,1.87-.52,2.8-.27,1.97-.27,3.95-.29,6.04-.02,3.62-.03,5.43-.05,9.05-.02,3.94-.11,8.07-.07,11.95Z"/>
          <path class="cls-6" d="M792.46,209.83c-4.78.05-9.61.18-14.21.3-.99.03-2.26.15-3.14-.17-.38-.1-.75-.21-.88-.54,0-.22-.13-.44-.12-.55-.12-1.11-.22-2.13-.24-3.22-.05-3.38.15-6.89.55-10.33,0-.31,0-.47,0-.78q0-.11.25-.22c.13,0,.25-.11.38-.11.5-.22,1.13-.22,1.63-.22,1.51,0,2.26,0,3.77,0,2.39,0,4.93-.09,7.29-.12,4.85-.06,9.8-.12,14.83-.12,5.93,0,8.9,0,14.83,0,2.39,0,4.9,0,7.29-.11,2.21,0,3.32,0,5.53,0,.25,0,.63,0,.75.11.25.11.38.32.38.54.5.76.32,1.78.38,2.59.06.91.09,2.08.12,3.13.06,1.99-.34,4.2-.13,6.26.08.83.38,1.83-.13,2.7,0,.22-.13.43-.38.54-.25.11-.5.11-.76.11-.63.11-1.13.11-1.76.11-6.24.01-9.36.02-15.6.06-.13,0-.63.11-.63.22-.13.11,0,.54,0,.76,0,.3,0,.45,0,.76,0,1.08.12,2.06.12,3.14,0,1.26,0,1.88,0,3.14,0,1.08-.06,2.12,0,3.14.05.92.12,2.06.12,3.03,0,1.08-.13,2.06-.13,3.14,0,1.08.12,2.06.12,3.14,0,.54-.13,1.08-.13,1.63,0,.43-.25.98-.13,1.52.25,2.05.12,4.11.11,6.17,0,4.22.17,8.62.23,12.77.05,4.16-.08,8.51-.15,12.67-.01.85.13,1.9-.38,2.61-.56.76-1.67.84-2.65.94-2.32.25-4.93.27-7.33.36-2.98.03-4.47.05-7.45.1-.76.04-2.08.21-2.65-.31-.63-.56-.25-1.52,0-2.19.51-2.1.33-4.23.4-6.14.04-1.06.13-2.19.14-3.18,0-1.09-.06-2.24-.12-3.28-.06-1.03.13-2.08.14-3.18v-3.17c.02-2.19.15-4.27.16-6.46.02-5.16.02-7.74.04-12.91,0-2.08.14-4.27.02-6.34-.19-4.81-.28-7.21-.47-12.02Z"/>
          <path class="cls-6" d="M890.44,269.41c-.4.57-2.95.42-4.42.28-1.58-.15-3.28-.3-4.93-.5-2.07-.2-3.11-.3-5.18-.48-1.11-.14-1.67-.21-2.78-.35-.45-.02-.68-.03-1.14-.05-.38-.02-.76-.25-1.14-.38-.25-.01-.25-.12-.38-.23-.1-.22-.15-.33-.25-.55,0-.33-.13-.66-.13-.99,0-.83,0-1.24,0-2.07,0-1.52.06-3.11.12-4.57.05-1.36,0-2.94-.14-4.47,0-1.74,0-2.61-.01-4.36,0-.76,0-1.42-.13-2.18,0-.33-.13-.66-.13-1.09,0-.33,0-.65.12-.98,0-.33.07-.7.12-.98.06-.35-.13-.77-.13-1.09-.13-.66-.13-1.42,0-2.07,0-.33,0-.65-.13-.87,0-.22,0-.33,0-.54q-.13-.11-.13-.22c0-.22,0-.11-.25-.22-.96-.11-1.44-.17-2.4-.28-1.76-.04-3.46-.13-5.17-.22-1.59-.08-3.4-.28-5.04-.31-.88-.01-1.76.08-2.65.07-.1,0-.15,0-.25,0-.25,0-.13,0-.25.1,0,.11-.13.32-.13.43-.15.43-.23.65-.38,1.08-.25,1.29,0,2.81,0,4.22,0,1.41-.16,2.95-.37,4.32-.43,2.83-.25,5.94-.37,8.86-.15,1.77-.22,2.66-.37,4.43,0,.76.06,1.57,0,2.16-.06.58.13,1.3,0,1.84,0,.22-.13.32-.13.43-.1.17-.15.26-.25.43-.45.12-.68.18-1.14.3-.76.09-1.64.08-2.4.07-.88-.01-1.64-.13-2.53-.14-.76,0-1.64.09-2.4.08-.46,0-.68,0-1.14-.01-.51,0-.88-.11-1.26-.12-.88.1-1.69.15-2.53.09-.83-.05-1.64-.11-2.53-.11-.51,0-.76,0-1.26,0-.38,0-.76-.11-1.14-.11-.13-.11-.38-.11-.51-.11-.25-.11-.38-.22-.38-.43-.25-.21-.25-.43-.38-.75,0-.69,0-1.04,0-1.73,0-1.51,0-3.13.13-4.64,0-3.58,0-5.37,0-8.95,0-5.93-.45-12.51.13-17.91.06-.6,0-1.4.13-2.16.13-.76-.1-1.43-.12-2.16-.06-1.45.1-2.94.13-4.42.06-2.96.1-5.97.13-8.95.06-5.98,0-11.97.13-17.91,0-1.51,0-2.27,0-3.78.15-.17.23-.26.38-.43,1.13-.86,2.76-.54,4.15-.54,1.63,0,3.39-.11,5.03,0,1.01.13,1.51.19,2.51.32,1.06,0,1.58,0,2.64,0,.88.11,1.63.11,2.51.11.5,0,1.13,0,1.63.33.38.22.38.65.38,1.08,0,.86,0,1.3,0,2.16,0,3.03-.12,5.95-.11,8.97,0,1.51,0,3.03-.12,4.43-.1.86-.15,1.3-.25,2.16,0,.76.19,1.57.25,2.27.11,1.29-.12,2.92-.12,4.32,0,.76.13,1.41.25,2.06,0,.11,0,.32.13.33,6.9.05,10.35.09,17.25.2.13,0,.12-.32.12-.32.25-.76.25-1.41.25-2.06,0-.91,0-1.37,0-2.29,0-1.52-.13-2.94-.14-4.47,0-1.83,0-2.74-.01-4.57.14-3.61.21-5.42.35-9.03,0-1.52.12-3.05.24-4.57,0-.22,0-.54.12-.65.12-.22.88-.33,1.13-.33.88-.22,1.65-.3,2.39-.33,1.71-.05,3.52,0,5.15,0,4.12,0,6.18,0,10.3,0,.38,0,.63.22.75.44.25.22.33.48.38.66.15.56-.09,1.58-.12,2.32-.05,1.49-.11,3.09-.11,4.64,0,1.44-.16,3.04.02,4.42.19,1.5.14,3.09.14,4.53.02,5.48.03,8.22.05,13.69.02,6.18.17,12.26.2,18.45.03,7.33.04,11,.07,18.33.01,2.87.63,7.58-.09,8.61Z"/>
          <path class="cls-6" d="M917.12,211.4c.03,4.9.04,7.36.06,12.26,0,.23.12.68.26.8.14.13.88.15,1.13.27,1.46.06,2.19.09,3.65.15,3.27.14,6.67.28,9.94.21,1.76-.04,3.4.04,5.16.13,1.51.07,3.19-.11,4.65.23,1.11.26,2.03,1.05,2.28,2.12.13.59.05,1.34.01,1.89-.05.76-.12,1.64-.11,2.35,0,1.53-.36,3.04-.35,4.57.01,1.79.02,2.69.03,4.48,0,.24,0,.47-.12.7,0,.12-.13.23-.25.33-.12.23-.28.26-.5.31-.63.14-1.64,0-2.39-.06-1.64-.12-3.3-.39-5.03-.49-3.21-.17-6.55-.23-9.94-.22-1.63,0-3.32-.27-4.91-.42-1.21-.12-2.52-.26-3.65.46-.12.22-.37.32-.5.65,0,.34.13.8.13,1.26,0,.86,0,1.29.01,2.16.16,1.83.24,2.74.4,4.56.16,1.78.24,2.67.4,4.45,0,.11,0,.34.13.46,0,.23.13.35.25.47.38.14.63.28.88.3.86.07,1.29.1,2.14.17,1.76.14,3.4.16,5.04.3,1.76.15,3.4.41,5.04.55,3.4.31,6.8.63,10.07.83,1.06.1,1.59.16,2.64.26.75-.04,1.66.15,2.39.13,1.1-.03,2.7-.33,3.65.26,1,.63,1.08,2.08,1.03,2.97-.09,1.44-.05,3.28-.1,4.75-.05,1.48.08,3.3-.1,4.75-.08.67,0,1.55.01,2.26,0,.6-.24,1.28-.37,1.85-.1.18-.15.27-.25.44-.13-.02-.38.07-.5.17-.35.19-.53.29-.88.48q-.25.08-.5.05c-.76-.1-1.13-.15-1.89-.25-1.64-.33-3.42-.48-4.79-.85-.34-.09-.76-.21-1.13-.26-.38-.05-.81.08-1.26.08-.67,0-1.56-.25-2.39-.41-.7-.13-1.52-.06-2.39-.28-.75-.19-1.57-.24-2.39-.28-1.54-.07-3.32-.44-4.92-.78-1.69-.35-3.43-.45-5.04-.64-3.36-.4-6.81-.79-10.22-1.09-4.04-.45-6.06-.67-10.09-1.07-1.01-.08-1.51-.12-2.52-.19-.38-.14-.76-.17-1.14-.2-.13,0-.38-.03-.51-.15q-.13,0-.13-.12c-.13-.12-.13-.23-.25-.24-.25-.68-.13-1.34-.13-2.01,0-.78.06-1.5.12-2.21.05-.71.05-1.6,0-2.22-.07-.7-.08-1.61-.14-2.23-.14-1.41-.14-3.01-.14-4.45-.02-3.6-.02-5.4-.04-8.99,0-1.44-.08-2.98.11-4.44.08-.63.12-1.33.12-2.1,0-.89,0-1.33,0-2.22-.14-2.89-.15-5.89-.04-8.77.23-5.99.26-11.94.05-17.88-.11-2.97-.4-6-.41-8.89,0-1.55.07-3.05.23-4.44.09-.75.05-1.63.12-2.22.05-.5,0-1.11.37-1.55.13-.33.55-.51,1-.55.58-.05,1.38-.11,2.14-.11,2.06,0,3.09,0,5.15,0,3.27,0,6.59-.27,9.92-.32,3.34-.05,6.84-.05,10.18-.1,1.6-.02,3.45.07,5.03.12,1.7.06,3.39.12,5.03.13,4.42,0,6.63.01,11.06.03q.25,0,.38.24c.15.24.23.36.38.59.38.59.52,1.31.64,2.02.27,1.53.4,3.09.53,4.52.26,1.9.39,2.86.66,4.76.13,1.07.2,2.32.15,3.33-.03.56-.24,1.18-.74,1.4-.63.46-1.51.43-2.26.53-1.91.08-2.86.13-4.77.21-2.01.08-3.02.12-5.03.21-3.39.25-6.79.16-10.06.07-3.14-.08-6.29-.16-9.43-.35Z"/>
          <path class="cls-6" d="M1017.87,285.97c-.16.21-.37.6-.5.84-.5.84-1.41,1.29-2.37,1.25-.6-.02-1.25-.13-2-.29-.75-.16-1.54-.4-2.25-.61-1.35-.4-3.03-.67-4.51-1.07-2.81-.76-5.94-1.55-8.9-2.42-1.12-.33-2.27-.69-3.14-1.63-1.01-1.08-1.52-2.47-2.03-3.58-1.38-3.63-2.06-5.44-3.44-9.02-2.42-5.86-5.09-11.67-7.38-17.34-.36-.9-.54-1.34-.89-2.24-.31-.79-.46-1.18-.77-1.97-.13-.14-.13-.39-.25-.4-.15-.12-.23-.18-.38-.29-.38-.04-.75-.08-1.13-.24-.8-.08-1.21-.13-2.01-.21-.25.1-.38.08-.63.06,0,0-.13-.14-.25-.03-.05,0-.08,0-.13-.01,0,.05,0,.07,0,.12-.12.24-.12.61-.12.86-.14,9.47.03,19.07.18,28.45.01.86.26,2.15-.36,2.8-.38.19-.75.25-1,.21-.8-.03-1.2-.05-2.01-.08-1.51-.12-3.02-.24-4.65-.49-1.38-.22-2.89-.69-4.28-1.02-2.67-.4-4-.6-6.67-.98-.13-.14-.38-.17-.63-.33-.1-.11-.15-.17-.25-.28-.13-.26-.13-.38-.13-.62-.28-26.9-.9-54.03-1.26-81.05.4-.14.6-.21,1-.36.25,0,.63-.12.88-.12.96,0,1.43,0,2.39,0,1.38-.12,2.95-.06,4.4-.11,1.45-.05,3.01-.11,4.65-.11,1.51,0,3.02.13,4.52.13,3.62.11,5.43.16,9.05.28,1.51,0,3.02.14,4.52.14,1.76.11,2.64.16,4.4.27,1.51.14,3.03.41,4.4.67,1.5.28,3.05.61,4.4,1.07,2.15.73,4.59,1.87,6.55,3.36,1.89,1.43,3.67,3.25,5.05,5.29,1.65,2.44,2.91,5.05,3.93,7.79.51,1.37.89,2.75,1.03,4.37.13,1.49.27,3.12.28,4.75.01,2.84-.4,5.68-1.21,8.41-.77,2.58-2.16,5.07-3.72,7.17-1.63,2.19-3.23,4.46-5.23,6.09-1,.81-2.12,1.48-3.12,2.15-.7.39-1.05.59-1.75.98-.3.17-.45.26-.75.44-.2.08-.3.12-.5.2-.12.12,0,0,0,.26,0,.13.13.28.13.28,1.83,3.5,2.74,5.27,4.56,8.84,1.67,3.55,2.51,5.34,4.18,8.95,1.27,2.86,3.04,5.56,4.43,8.5,1.39,2.94,2.78,5.9,4.42,8.67.46.91.68,1.36,1.14,2.27,0,.14.13.3.25.6,0,.14.01.2-.12.38ZM994.84,222.86c-.04-1.65-.85-4.44-2.04-5.54-1.39-1.28-3.38-1.88-5.16-2.17-2.17-.36-4.52-.46-6.78-.56-2.46-.11-3.69-.16-6.16-.26q-.13,0-.25.24c-.13,0-.12.12-.25.24,0,.7,0,1.04.01,1.74,0,.62,0,1.24-.12,1.73,0,1.49.01,2.23.02,3.72.01,2.36.16,4.73.17,7.08,0,.35,0,.52,0,.87,0,.25.13.51.25.64,3.12.23,4.67.34,7.79.58,3.77.29,12.74,1.23,12.5-8.31Z"/>
          <path class="cls-6" d="M1075.71,233.08c-1.75.13-3.57,0-5.38-.25-1.79-.26-3.88-.4-5.76-.75-1.2-.12-1.8-.18-3-.3-.88-.09-1.89-.18-2.76-.42-.74-.21-1.58-.62-2.01-1.39-.4-.72-.5-1.84-.51-2.73-.25-1.22-.38-2.42-.51-3.47-.13-1.05-.2-2.29-.38-3.3-.34-1.84-1.37-3.67-2.27-5.04-1.03-1.57-2.91-2.36-4.52-2.89-1.5-.49-3.01-.58-4.52.07-.75.25-1.45.64-2,1.05-.62.46-1.36,1.01-1.75,1.63-.42.67-.77,1.55-.99,2.23-.26.81-.37,1.69-.49,2.4-.36,3.55.9,6.88,3.17,9.42,2.52,2.82,5.91,5.07,9.04,7.01,3.48,2.16,7.02,3.9,10.52,6.16,1.63.96,3.27,2.37,4.76,3.52,1.5,1.16,3.13,2.43,4.5,3.87,2.5,2.69,4.5,5.98,6,9.71.45,1.34.67,2.01,1.12,3.35.5,1.04.86,2.09,1.25,3.24.34,1.01.69,2.08.75,3.16.06,1.05-.18,2.07-.12,3.14.03.6.12,1.14.12,1.77v1.74c0,1.11-.07,2.41-.12,3.46-.12,2.2-.64,4.62-1.12,6.69-.51,2.22-1.23,4.03-2.24,5.57-1.03,1.58-2.29,2.85-3.6,3.89-.99.78-2.03,1.47-3.11,2.1-.86.5-1.86.72-2.86,1.06-3.23.64-6.63,1.04-9.95,1.06-3.57.02-7.63-.16-11.21-1.23-1.95-.58-3.89-1.43-5.74-2.34-1.74-.85-3.65-1.75-5.37-2.75-1.62-.93-3.13-2.02-4.63-3.2-1.5-1.18-3.01-2.5-4.26-4.02-.7-.98-1.06-1.47-1.76-2.45-.63-.82-1.26-1.64-1.64-2.54-.3-.56-.45-.83-.76-1.39-.15-.19-.23-.29-.38-.49-.13-.3-.13-.57-.13-.71-.3-.99-.46-1.49-.76-2.47-.63-1.76-1.29-3.53-1.53-5.06-.08-.53,0-.95,0-1.36-.15-.68-.23-1.02-.38-1.7-.13-.97-.21-2.14-.27-3.04-.06-1.05-.19-2.25-.14-3.15.05-1.01.2-2.18.23-3.09.05-1.42-.39-3.59,1.11-4.06.75-.3,1.63-.18,2.5-.19.88-.01,1.9.17,2.75.26,1.93.21,4.12.45,5.89.59.93.07,1.88.14,2.88.29,1,.15,2.13.39,3.01.74.35.14.76.37,1,.58.26.22.54.67.63.95.16.52,0,1.14,0,1.57,0,2,.01,2.99.02,4.99-.12,1.12,0,2.14.26,3.18.51,1.95,1.39,3.82,2.52,5.48.5.82,1,1.68,1.63,2.34.7.73,1.63,1.34,2.38,1.79,1.75.94,3.59,1.52,5.25,1.55,2.84.04,6.48-.67,6.97-4.45.49-3.78-.64-8.2-3.15-11.16-1.25-1.56-2.96-2.85-4.51-4.02-1.62-1.21-3.26-2.58-5.01-3.71-3.38-2.55-6.89-4.77-10.16-7.32-1.63-1.21-3.15-2.74-4.65-3.96-1.43-1.17-3.02-2.27-4.4-3.57-1.18-1.11-2.26-2.47-3.15-3.92-.99-1.61-1.64-3.18-2.28-4.87-.38-.85-.8-1.72-1.01-2.54-.28-1.07-.34-2.25-.52-3.17-.37-1.91-.56-4.15-.53-6.16.04-3.87,1.09-7.82,2.71-11.32.75-1.61,1.73-3.29,2.74-4.72.94-1.34,2.12-2.84,3.25-4.07,2.12-2.46,4.75-4.25,7.64-5.51,1.63-.56,3.44-.95,5.02-1.26,1.84-.37,3.84-.79,5.78-.86,1.82-.07,3.77,0,5.65.15,2.01.15,3.98.24,5.78.6,1.83.36,3.8.9,5.53,1.52,1.62.59,3.27,1.54,4.65,2.93.85.81,1.28,1.21,2.14,2.03.75.69,1.13,1.04,1.88,1.74,1.13,1.42,1.99,3.19,2.64,4.89.83,2.19,1.96,4.33,2.51,6.67.55,2.31.87,4.76,1.13,7.13.24,2.21.38,4.59.25,6.78-.15,1.37-.22,2.05-.37,3.42,0,.63-.12,1.09-.25,1.54-.25.54-.38.81-.63,1.35Z"/>
        </g>
      </g>
    </g>
    <text class="cls-5" transform="translate(590.28 347.4)"><tspan class="cls-2" x="0" y="0">HIS</tspan><tspan class="cls-3" x="35.5" y="0">T</tspan><tspan class="cls-2" x="45.44" y="0">ORIAS INFINI</tspan><tspan class="cls-4" x="192.4" y="0">T</tspan><tspan class="cls-1" x="201.7" y="0" xml:space="preserve">AS    </tspan><tspan class="cls-9" x="259.16" y="0">M</tspan><tspan class="cls-8" x="281.49" y="0">UND</tspan><tspan class="cls-10" x="333.63" y="0">O</tspan><tspan class="cls-8" x="354.21" y="0">S INFINI</tspan><tspan class="cls-9" x="446.04" y="0">T</tspan><tspan class="cls-10" x="456.32" y="0">O</tspan><tspan class="cls-8" x="476.9" y="0">S</tspan></text>
    <g>
      <path class="cls-6" d="M1096.99,274.84h-4.63v-5.7h15.44v5.7h-4.67v20.99h-6.14v-20.99Z"/>
      <path class="cls-6" d="M1126.84,287.43c-.12-2.14-.28-5.35-.24-8.16h-.08c-.44,2.81-1.15,6.14-1.5,7.76l-1.9,8.24h-4.43l-1.82-8.24c-.36-1.62-1.03-4.95-1.39-7.76h-.08c-.12,2.81-.32,6.02-.44,8.16l-.44,8.39h-5.19l2.06-26.69h6.42l1.7,8.55c.67,3.33,1.35,6.41,1.78,9.42h.08c.36-2.93.95-6.14,1.58-9.42l1.7-8.55h6.38l1.66,26.69h-5.42l-.44-8.39Z"/>
    </g>
    <path class="cls-6" d="M826.96,338.04c1.09-.25,2.67-.78,4.22-1.95,3.71-2.81,4.23-7.05,4.32-8.01.16,1.02.72,3.71,3.04,6.11,1.94,2.01,4.14,2.81,5.18,3.12-1.07.27-3.3.99-5.28,2.94-2.79,2.75-3.18,6.05-3.26,7.02.03-.54.14-4.43-3.02-7.13-2.03-1.73-4.33-2.04-5.2-2.11Z"/>
  </g>
</svg>